<svg width="300" height="36" viewBox="0 0 300 36" fill="none" xmlns="http://www.w3.org/2000/svg">
<circle cx="18" cy="18" r="18" fill="white"/>
<circle cx="68" cy="18" r="18" fill="white"/>
<circle cx="118" cy="18" r="18" fill="white"/>
<circle cx="168" cy="18" r="18" fill="white"/>
<circle cx="218" cy="18" r="18" fill="white"/>
<g clip-path="url(#clip0_943_143)">
<path d="M17.5 10.5L14.7 13.3L16.1 14.7L18.9 11.9C20.055 10.745 21.945 10.745 23.1 11.9C24.255 13.055 24.255 14.945 23.1 16.1L20.3 18.9L21.7 20.3L24.5 17.5C26.4321 15.568 26.4321 12.432 24.5 10.5C22.568 8.56797 19.432 8.56797 17.5 10.5ZM18.9 20.3L16.1 23.1C14.945 24.255 13.055 24.255 11.9 23.1C10.745 21.945 10.745 20.055 11.9 18.9L14.7 16.1L13.3 14.7L10.5 17.5C8.568 19.432 8.568 22.568 10.5 24.5C12.432 26.432 15.568 26.432 17.5 24.5L20.3 21.7L18.9 20.3ZM14 19.6L19.6 14L21 15.4L15.4 21L14 19.6Z" fill="#888888"/>
</g>
<path d="M64.9751 26.2193C72.145 26.2193 76.0666 20.2791 76.0666 15.1278C76.0666 14.9591 76.0666 14.7911 76.0552 14.6239C76.8181 14.0721 77.4766 13.3888 78 12.6061C77.2886 12.9215 76.5339 13.1283 75.761 13.2194C76.5749 12.7323 77.1839 11.9661 77.4748 11.0633C76.7097 11.5174 75.8725 11.8374 74.9995 12.0095C74.4118 11.3846 73.6345 10.9707 72.7878 10.8321C71.9412 10.6934 71.0725 10.8376 70.3161 11.2424C69.5597 11.6473 68.9578 12.2901 68.6035 13.0714C68.2492 13.8528 68.1624 14.7291 68.3564 15.5648C66.8065 15.4871 65.2904 15.0843 63.9063 14.3826C62.5222 13.681 61.3012 12.6961 60.3224 11.492C59.8239 12.3501 59.6712 13.366 59.8955 14.3328C60.1197 15.2996 60.7039 16.1446 61.5293 16.6957C60.9089 16.6775 60.302 16.5102 59.76 16.2078V16.2572C59.7602 17.1572 60.0718 18.0294 60.6418 18.7259C61.2118 19.4224 62.0052 19.9002 62.8874 20.0785C62.3135 20.235 61.7114 20.2579 61.1272 20.1453C61.3764 20.9198 61.8614 21.5971 62.5144 22.0825C63.1674 22.5679 63.9557 22.8371 64.7692 22.8525C63.9609 23.4877 63.0354 23.9575 62.0454 24.2347C61.0555 24.5119 60.0206 24.5913 59 24.4682C60.7827 25.6122 62.8569 26.219 64.9751 26.2162" fill="#888888"/>
<path d="M118 10.6207C120.405 10.6207 120.689 10.6312 121.635 10.6734C122.514 10.7121 122.989 10.8598 123.305 10.9828C123.723 11.1445 124.026 11.3414 124.339 11.6543C124.655 11.9707 124.848 12.2695 125.01 12.6879C125.133 13.0043 125.281 13.4824 125.32 14.3578C125.362 15.307 125.372 15.5918 125.372 17.993C125.372 20.3977 125.362 20.6824 125.32 21.6281C125.281 22.507 125.133 22.9816 125.01 23.298C124.848 23.7164 124.652 24.0187 124.339 24.3316C124.022 24.648 123.723 24.8414 123.305 25.0031C122.989 25.1262 122.511 25.2738 121.635 25.3125C120.686 25.3547 120.401 25.3652 118 25.3652C115.595 25.3652 115.311 25.3547 114.365 25.3125C113.486 25.2738 113.011 25.1262 112.695 25.0031C112.277 24.8414 111.974 24.6445 111.661 24.3316C111.345 24.0152 111.152 23.7164 110.99 23.298C110.867 22.9816 110.719 22.5035 110.68 21.6281C110.638 20.6789 110.628 20.3941 110.628 17.993C110.628 15.5883 110.638 15.3035 110.68 14.3578C110.719 13.4789 110.867 13.0043 110.99 12.6879C111.152 12.2695 111.348 11.9672 111.661 11.6543C111.978 11.3379 112.277 11.1445 112.695 10.9828C113.011 10.8598 113.489 10.7121 114.365 10.6734C115.311 10.6312 115.595 10.6207 118 10.6207ZM118 9C115.557 9 115.251 9.01055 114.291 9.05273C113.335 9.09492 112.677 9.24961 112.108 9.47109C111.514 9.70312 111.011 10.009 110.512 10.5117C110.009 11.0109 109.703 11.5137 109.471 12.1043C109.25 12.6773 109.095 13.3312 109.053 14.2875C109.011 15.2508 109 15.5566 109 18C109 20.4434 109.011 20.7492 109.053 21.709C109.095 22.6652 109.25 23.3227 109.471 23.8922C109.703 24.4863 110.009 24.9891 110.512 25.4883C111.011 25.9875 111.514 26.2969 112.104 26.5254C112.677 26.7469 113.331 26.9016 114.288 26.9437C115.247 26.9859 115.553 26.9965 117.996 26.9965C120.44 26.9965 120.746 26.9859 121.705 26.9437C122.662 26.9016 123.319 26.7469 123.889 26.5254C124.479 26.2969 124.982 25.9875 125.481 25.4883C125.98 24.9891 126.29 24.4863 126.518 23.8957C126.74 23.3227 126.895 22.6687 126.937 21.7125C126.979 20.7527 126.989 20.4469 126.989 18.0035C126.989 15.5602 126.979 15.2543 126.937 14.2945C126.895 13.3383 126.74 12.6809 126.518 12.1113C126.297 11.5137 125.991 11.0109 125.488 10.5117C124.989 10.0125 124.486 9.70312 123.896 9.47461C123.323 9.25312 122.669 9.09844 121.713 9.05625C120.749 9.01055 120.443 9 118 9Z" fill="#888888"/>
<path d="M118 13.377C115.448 13.377 113.377 15.4477 113.377 18C113.377 20.5523 115.448 22.623 118 22.623C120.552 22.623 122.623 20.5523 122.623 18C122.623 15.4477 120.552 13.377 118 13.377ZM118 20.9988C116.344 20.9988 115.001 19.6559 115.001 18C115.001 16.3441 116.344 15.0012 118 15.0012C119.656 15.0012 120.999 16.3441 120.999 18C120.999 19.6559 119.656 20.9988 118 20.9988Z" fill="#888888"/>
<path d="M123.885 13.1942C123.885 13.7918 123.4 14.2735 122.806 14.2735C122.208 14.2735 121.727 13.7883 121.727 13.1942C121.727 12.5965 122.212 12.1149 122.806 12.1149C123.4 12.1149 123.885 12.6 123.885 13.1942Z" fill="#888888"/>
<g clip-path="url(#clip1_943_143)">
<path d="M177.602 12.8968C177.489 12.4925 177.266 12.1236 176.955 11.8269C176.645 11.5303 176.258 11.3162 175.833 11.2062C174.27 10.8068 168.02 10.8068 168.02 10.8068C168.02 10.8068 161.77 10.8068 160.206 11.2062C159.781 11.3162 159.394 11.5303 159.084 11.8269C158.774 12.1236 158.551 12.4925 158.438 12.8968C158.02 14.3887 158.02 17.4999 158.02 17.4999C158.02 17.4999 158.02 20.6112 158.438 22.1031C158.551 22.5073 158.774 22.8763 159.084 23.1729C159.394 23.4696 159.781 23.6837 160.206 23.7937C161.77 24.1931 168.02 24.1931 168.02 24.1931C168.02 24.1931 174.27 24.1931 175.833 23.7937C176.258 23.6837 176.645 23.4696 176.955 23.1729C177.266 22.8763 177.489 22.5073 177.602 22.1031C178.02 20.6112 178.02 17.4999 178.02 17.4999C178.02 17.4999 178.02 14.3887 177.602 12.8968Z" fill="#888888"/>
<path d="M165.974 20.3251V14.6748L171.202 17.5L165.974 20.3251Z" fill="#FEFEFE"/>
</g>
<path d="M227 18C227 13.0294 222.971 9 218 9C213.029 9 209 13.0294 209 18C209 22.4921 212.291 26.2155 216.594 26.8907V20.6016H214.309V18H216.594V16.0172C216.594 13.7616 217.937 12.5156 219.993 12.5156C220.978 12.5156 222.008 12.6914 222.008 12.6914V14.9062H220.873C219.755 14.9062 219.406 15.6001 219.406 16.3125V18H221.902L221.503 20.6016H219.406V26.8907C223.709 26.2155 227 22.4921 227 18Z" fill="#888888"/>
<defs>
<clipPath id="clip0_943_143">
<rect width="21" height="21" fill="white" transform="translate(7 7)"/>
</clipPath>
<clipPath id="clip1_943_143">
<rect width="20" height="19" fill="white" transform="translate(158 8)"/>
</clipPath>
</defs>
</svg>
