<svg width="620" height="67" viewBox="0 0 620 67" fill="none" xmlns="http://www.w3.org/2000/svg">
<rect width="620" height="67" fill="#F2F2F2"/>
<circle cx="298" cy="30" r="30" fill="#F0BFBF"/>
<circle cx="386" cy="30" r="30" fill="#E9F0BF"/>
<path d="M394.917 25.5705C392.806 23.4765 389.384 23.4765 387.274 25.5705L386 27L384.726 25.5705C382.616 23.4765 379.194 23.4765 377.083 25.5705C374.972 27.6644 374.972 31.0594 377.083 33.1533L386 42L394.917 33.1533C397.028 31.0594 397.028 27.6644 394.917 25.5705Z" stroke="white" stroke-width="2" stroke-linejoin="round"/>
<circle cx="474" cy="30" r="30" fill="#BFE1F0"/>
<g clip-path="url(#clip0_2036_807)">
<path d="M474 40.4992H478.2C479.88 40.4992 480.72 40.4992 481.362 40.1722C481.926 39.8847 482.385 39.4257 482.673 38.8612C483 38.2195 483 37.3794 483 35.6992V28.4992H465V35.6992C465 37.3794 465 38.2195 465.327 38.8612C465.615 39.4257 466.074 39.8847 466.638 40.1722C467.28 40.4992 468.12 40.4992 469.8 40.4992H474ZM474 40.4992V23.9992M474 23.9992H482.25C482.949 23.9992 483.298 23.9992 483.574 24.1134C483.942 24.2656 484.234 24.5577 484.386 24.9252C484.5 25.2009 484.5 25.5503 484.5 26.2492C484.5 26.9481 484.5 27.2976 484.386 27.5732C484.234 27.9408 483.942 28.2328 483.574 28.385C483.298 28.4992 482.949 28.4992 482.25 28.4992H465.75C465.051 28.4992 464.702 28.4992 464.426 28.385C464.058 28.2328 463.766 27.9408 463.614 27.5732C463.5 27.2976 463.5 26.9481 463.5 26.2492C463.5 25.5503 463.5 25.2009 463.614 24.9252C463.766 24.5577 464.058 24.2656 464.426 24.1134C464.702 23.9992 465.051 23.9992 465.75 23.9992H468M474 23.9992C474 20.2548 471.145 19.2543 469.512 19.6696C467.262 20.2418 467.441 23.0286 468 23.9992M474 23.9992H468M474 23.9992C474 20.2548 476.855 19.2543 478.488 19.6696C480.738 20.2418 480.559 23.0286 480 23.9992H474Z" stroke="white" stroke-width="2" stroke-linecap="round" stroke-linejoin="round"/>
</g>
<g clip-path="url(#clip1_2036_807)">
<path d="M298 40.4992H302.2C303.88 40.4992 304.72 40.4992 305.362 40.1722C305.926 39.8847 306.385 39.4257 306.673 38.8612C307 38.2195 307 37.3794 307 35.6992V28.4992H289V35.6992C289 37.3794 289 38.2195 289.327 38.8612C289.615 39.4257 290.074 39.8847 290.638 40.1722C291.28 40.4992 292.12 40.4992 293.8 40.4992H298ZM298 40.4992V23.9992M298 23.9992H306.25C306.949 23.9992 307.298 23.9992 307.574 24.1134C307.942 24.2656 308.234 24.5577 308.386 24.9252C308.5 25.2009 308.5 25.5503 308.5 26.2492C308.5 26.9481 308.5 27.2976 308.386 27.5732C308.234 27.9408 307.942 28.2328 307.574 28.385C307.298 28.4992 306.949 28.4992 306.25 28.4992H289.75C289.051 28.4992 288.702 28.4992 288.426 28.385C288.058 28.2328 287.766 27.9408 287.614 27.5732C287.5 27.2976 287.5 26.9481 287.5 26.2492C287.5 25.5503 287.5 25.2009 287.614 24.9252C287.766 24.5577 288.058 24.2656 288.426 24.1134C288.702 23.9992 289.051 23.9992 289.75 23.9992H292M298 23.9992C298 20.2548 295.145 19.2543 293.512 19.6696C291.262 20.2418 291.441 23.0286 292 23.9992M298 23.9992H292M298 23.9992C298 20.2548 300.855 19.2543 302.488 19.6696C304.738 20.2418 304.559 23.0286 304 23.9992H298Z" stroke="white" stroke-width="2" stroke-linecap="round" stroke-linejoin="round"/>
</g>
<circle cx="33.5" cy="33.5" r="33.5" fill="#4857EC" fill-opacity="0.1"/>
<path d="M39.656 39.656C38.1558 41.1558 36.1213 41.9983 34 41.9983C31.8787 41.9983 29.8442 41.1558 28.344 39.656M28 30H28.02M40 30H40.02M52 34C52 36.3638 51.5344 38.7044 50.6298 40.8883C49.7252 43.0722 48.3994 45.0565 46.7279 46.7279C45.0565 48.3994 43.0722 49.7252 40.8883 50.6298C38.7044 51.5344 36.3638 52 34 52C31.6362 52 29.2956 51.5344 27.1117 50.6298C24.9278 49.7252 22.9435 48.3994 21.2721 46.7279C19.6006 45.0565 18.2748 43.0722 17.3702 40.8883C16.4656 38.7044 16 36.3638 16 34C16 29.2261 17.8964 24.6477 21.2721 21.2721C24.6477 17.8964 29.2261 16 34 16C38.7739 16 43.3523 17.8964 46.7279 21.2721C50.1036 24.6477 52 29.2261 52 34Z" stroke="#4857EC" stroke-width="3" stroke-linecap="round" stroke-linejoin="round"/>
<circle cx="120.5" cy="33.5" r="33.5" fill="#FFD6D6" fill-opacity="0.5"/>
<path d="M126.656 39.656C125.156 41.1558 123.121 41.9983 121 41.9983C118.879 41.9983 116.844 41.1558 115.344 39.656M115 30H115.02M127 30H127.02M139 34C139 36.3638 138.534 38.7044 137.63 40.8883C136.725 43.0722 135.399 45.0565 133.728 46.7279C132.056 48.3994 130.072 49.7253 127.888 50.6298C125.704 51.5344 123.364 52 121 52C118.636 52 116.296 51.5344 114.112 50.6298C111.928 49.7253 109.944 48.3994 108.272 46.7279C106.601 45.0565 105.275 43.0722 104.37 40.8883C103.466 38.7044 103 36.3638 103 34C103 29.2261 104.896 24.6477 108.272 21.2721C111.648 17.8964 116.226 16 121 16C125.774 16 130.352 17.8964 133.728 21.2721C137.104 24.6477 139 29.2261 139 34Z" stroke="#C66464" stroke-width="3" stroke-linecap="round" stroke-linejoin="round"/>
<circle cx="209.5" cy="33.5" r="33.5" fill="#BCFF87" fill-opacity="0.5"/>
<path d="M226.63 40.8883C227.534 38.7044 228 36.3638 228 34C228 29.2261 226.104 24.6477 222.728 21.2721C219.352 17.8964 214.774 16 210 16C205.226 16 200.648 17.8964 197.272 21.2721C193.896 24.6477 192 29.2261 192 34C192 36.3638 192.466 38.7044 193.37 40.8883C194.275 43.0722 195.601 45.0565 197.272 46.7279C198.944 48.3994 200.928 49.7253 203.112 50.6298C205.296 51.5344 207.636 52 210 52C212.364 52 214.704 51.5344 216.888 50.6298C219.072 49.7253 221.056 48.3994 222.728 46.7279C224.399 45.0565 225.725 43.0722 226.63 40.8883Z" fill="#E8FFD6"/>
<path d="M215.656 39.656C214.156 41.1558 212.121 41.9983 210 41.9983C207.879 41.9983 205.844 41.1558 204.344 39.656M204 30H204.02M216 30H216.02M228 34C228 36.3638 227.534 38.7044 226.63 40.8883C225.725 43.0722 224.399 45.0565 222.728 46.7279C221.056 48.3994 219.072 49.7252 216.888 50.6298C214.704 51.5344 212.364 52 210 52C207.636 52 205.296 51.5344 203.112 50.6298C200.928 49.7252 198.944 48.3994 197.272 46.7279C195.601 45.0565 194.275 43.0722 193.37 40.8883C192.466 38.7044 192 36.3638 192 34C192 29.2261 193.896 24.6477 197.272 21.2721C200.648 17.8964 205.226 16 210 16C214.774 16 219.352 17.8964 222.728 21.2721C226.104 24.6477 228 29.2261 228 34Z" stroke="#6AAF35" stroke-width="3" stroke-linecap="round" stroke-linejoin="round"/>
<defs>
<clipPath id="clip0_2036_807">
<rect width="24" height="24" fill="white" transform="translate(462 18)"/>
</clipPath>
<clipPath id="clip1_2036_807">
<rect width="24" height="24" fill="white" transform="translate(286 18)"/>
</clipPath>
</defs>
</svg>
