<svg width="620" height="45" viewBox="0 0 620 45" fill="none" xmlns="http://www.w3.org/2000/svg">
<g clip-path="url(#clip0_2036_879)">
<rect width="620" height="45" fill="#F2F2F2"/>
<circle cx="266.5" cy="21.5" r="22.5" fill="#F5F5F5"/>
<circle cx="205.5" cy="22.5" r="22.5" fill="#F5F5F5"/>
<g clip-path="url(#clip1_2036_879)">
<path fill-rule="evenodd" clip-rule="evenodd" d="M205 12.418C202.626 12.4192 200.33 13.26 198.523 14.7901C196.715 16.3201 195.513 18.4396 195.133 20.7696C194.753 23.0996 195.218 25.4881 196.447 27.5081C197.675 29.5281 199.586 31.0478 201.838 31.7954C202.334 31.8876 202.521 31.5798 202.521 31.318C202.521 31.0562 202.512 30.2971 202.508 29.4673C199.726 30.0683 199.138 28.2934 199.138 28.2934C198.685 27.1408 198.029 26.8379 198.029 26.8379C197.122 26.2221 198.097 26.2336 198.097 26.2336C199.102 26.3044 199.63 27.2594 199.63 27.2594C200.521 28.7791 201.97 28.3395 202.54 28.0826C202.629 27.4389 202.889 27.0009 203.176 26.7523C200.953 26.502 198.619 25.6491 198.619 21.8392C198.605 20.8511 198.973 19.8955 199.648 19.1702C199.546 18.9199 199.203 17.909 199.746 16.5358C199.746 16.5358 200.586 16.2691 202.497 17.555C204.136 17.1093 205.865 17.1093 207.504 17.555C209.413 16.2691 210.251 16.5358 210.251 16.5358C210.796 17.9057 210.453 18.9166 210.351 19.1702C211.028 19.8956 211.397 20.8528 211.382 21.8424C211.382 25.6606 209.042 26.502 206.817 26.7473C207.175 27.0569 207.494 27.6611 207.494 28.5897C207.494 29.9201 207.483 30.9903 207.483 31.318C207.483 31.5831 207.663 31.8926 208.17 31.7954C210.422 31.0477 212.333 29.5277 213.561 27.5074C214.789 25.4871 215.255 23.0982 214.874 20.768C214.493 18.4378 213.291 16.3183 211.483 14.7885C209.675 13.2587 207.378 12.4184 205.004 12.418H205Z" fill="black"/>
<path d="M198.787 26.6925C198.765 26.7419 198.686 26.7568 198.621 26.7222C198.557 26.6876 198.509 26.6234 198.532 26.5724C198.555 26.5213 198.633 26.5081 198.697 26.5427C198.762 26.5773 198.812 26.6431 198.787 26.6925Z" fill="black"/>
<path d="M199.193 27.1433C199.159 27.1604 199.119 27.1652 199.082 27.1568C199.044 27.1484 199.011 27.1273 198.988 27.0972C198.923 27.028 198.91 26.9325 198.959 26.8897C199.009 26.8469 199.098 26.8667 199.163 26.9358C199.228 27.005 199.243 27.1005 199.193 27.1433Z" fill="black"/>
<path d="M199.587 27.7138C199.525 27.7566 199.421 27.7138 199.363 27.6282C199.347 27.6129 199.334 27.5944 199.326 27.5741C199.317 27.5537 199.312 27.5318 199.312 27.5097C199.312 27.4875 199.317 27.4656 199.326 27.4453C199.334 27.4249 199.347 27.4065 199.363 27.3911C199.424 27.35 199.529 27.3911 199.587 27.4751C199.645 27.5591 199.646 27.671 199.587 27.7138V27.7138Z" fill="black"/>
<path d="M200.122 28.2683C200.067 28.3293 199.956 28.3128 199.865 28.2305C199.774 28.1482 199.752 28.0362 199.807 27.9769C199.862 27.9176 199.973 27.9341 200.067 28.0148C200.161 28.0955 200.18 28.2091 200.122 28.2683V28.2683Z" fill="black"/>
<path d="M200.872 28.5893C200.847 28.6667 200.735 28.7013 200.622 28.6684C200.509 28.6354 200.435 28.5432 200.456 28.4642C200.478 28.3852 200.592 28.349 200.706 28.3852C200.821 28.4214 200.894 28.5087 200.872 28.5893Z" fill="black"/>
<path d="M201.69 28.6449C201.69 28.7256 201.597 28.7948 201.478 28.7964C201.358 28.798 201.261 28.7322 201.261 28.6515C201.261 28.5708 201.353 28.5017 201.473 28.5C201.592 28.4984 201.69 28.5626 201.69 28.6449Z" fill="black"/>
<path d="M202.452 28.5199C202.467 28.6006 202.384 28.6846 202.265 28.7043C202.145 28.7241 202.041 28.6763 202.026 28.5973C202.011 28.5183 202.097 28.4327 202.213 28.4112C202.329 28.3898 202.437 28.4392 202.452 28.5199Z" fill="black"/>
</g>
<circle cx="83.5" cy="22.5" r="22.5" fill="#F5F5F5"/>
<circle cx="22.5" cy="22.5" r="22.5" fill="#F5F5F5"/>
<g clip-path="url(#clip2_2036_879)">
<path d="M32 22C32 16.4771 27.5229 12 22 12C16.4771 12 12 16.4771 12 22C12 26.9912 15.6568 31.1283 20.4375 31.8785V24.8906H17.8984V22H20.4375V19.7969C20.4375 17.2906 21.9305 15.9063 24.2146 15.9063C25.3084 15.9063 26.4531 16.1016 26.4531 16.1016V18.5625H25.1922C23.95 18.5625 23.5625 19.3334 23.5625 20.125V22H26.3359L25.8926 24.8906H23.5625V31.8785C28.3432 31.1283 32 26.9912 32 22Z" fill="black"/>
</g>
<g clip-path="url(#clip3_2036_879)">
<path d="M83 13.8008C85.6719 13.8008 85.9883 13.8125 87.0391 13.8594C88.0156 13.9023 88.543 14.0664 88.8945 14.2031C89.3594 14.3828 89.6953 14.6016 90.043 14.9492C90.3945 15.3008 90.6094 15.6328 90.7891 16.0977C90.9258 16.4492 91.0898 16.9805 91.1328 17.9531C91.1797 19.0078 91.1914 19.3242 91.1914 21.9922C91.1914 24.6641 91.1797 24.9805 91.1328 26.0313C91.0898 27.0078 90.9258 27.5352 90.7891 27.8867C90.6094 28.3516 90.3906 28.6875 90.043 29.0352C89.6914 29.3867 89.3594 29.6016 88.8945 29.7813C88.543 29.918 88.0117 30.082 87.0391 30.125C85.9844 30.1719 85.668 30.1836 83 30.1836C80.3281 30.1836 80.0117 30.1719 78.9609 30.125C77.9844 30.082 77.457 29.918 77.1055 29.7813C76.6406 29.6016 76.3047 29.3828 75.957 29.0352C75.6055 28.6836 75.3906 28.3516 75.2109 27.8867C75.0742 27.5352 74.9102 27.0039 74.8672 26.0313C74.8203 24.9766 74.8086 24.6602 74.8086 21.9922C74.8086 19.3203 74.8203 19.0039 74.8672 17.9531C74.9102 16.9766 75.0742 16.4492 75.2109 16.0977C75.3906 15.6328 75.6094 15.2969 75.957 14.9492C76.3086 14.5977 76.6406 14.3828 77.1055 14.2031C77.457 14.0664 77.9883 13.9023 78.9609 13.8594C80.0117 13.8125 80.3281 13.8008 83 13.8008ZM83 12C80.2852 12 79.9453 12.0117 78.8789 12.0586C77.8164 12.1055 77.0859 12.2773 76.4531 12.5234C75.793 12.7812 75.2344 13.1211 74.6797 13.6797C74.1211 14.2344 73.7813 14.793 73.5234 15.4492C73.2773 16.0859 73.1055 16.8125 73.0586 17.875C73.0117 18.9453 73 19.2852 73 22C73 24.7148 73.0117 25.0547 73.0586 26.1211C73.1055 27.1836 73.2773 27.9141 73.5234 28.5469C73.7813 29.207 74.1211 29.7656 74.6797 30.3203C75.2344 30.875 75.793 31.2188 76.4492 31.4727C77.0859 31.7188 77.8125 31.8906 78.875 31.9375C79.9414 31.9844 80.2813 31.9961 82.9961 31.9961C85.7109 31.9961 86.0508 31.9844 87.1172 31.9375C88.1797 31.8906 88.9102 31.7188 89.543 31.4727C90.1992 31.2188 90.7578 30.875 91.3125 30.3203C91.8672 29.7656 92.2109 29.207 92.4648 28.5508C92.7109 27.9141 92.8828 27.1875 92.9297 26.125C92.9766 25.0586 92.9883 24.7188 92.9883 22.0039C92.9883 19.2891 92.9766 18.9492 92.9297 17.8828C92.8828 16.8203 92.7109 16.0898 92.4648 15.457C92.2188 14.793 91.8789 14.2344 91.3203 13.6797C90.7656 13.125 90.207 12.7813 89.5508 12.5273C88.9141 12.2812 88.1875 12.1094 87.125 12.0625C86.0547 12.0117 85.7148 12 83 12Z" fill="black"/>
<path d="M83 16.8633C80.1641 16.8633 77.8633 19.1641 77.8633 22C77.8633 24.8359 80.1641 27.1367 83 27.1367C85.8359 27.1367 88.1367 24.8359 88.1367 22C88.1367 19.1641 85.8359 16.8633 83 16.8633ZM83 25.332C81.1602 25.332 79.668 23.8398 79.668 22C79.668 20.1602 81.1602 18.668 83 18.668C84.8398 18.668 86.332 20.1602 86.332 22C86.332 23.8398 84.8398 25.332 83 25.332Z" fill="black"/>
<path d="M89.5391 16.6602C89.5391 17.3242 89 17.8594 88.3398 17.8594C87.6758 17.8594 87.1406 17.3203 87.1406 16.6602C87.1406 15.9961 87.6797 15.4609 88.3398 15.4609C89 15.4609 89.5391 16 89.5391 16.6602Z" fill="black"/>
</g>
<circle cx="144.5" cy="22.5" r="22.5" fill="#F5F5F5"/>
<g clip-path="url(#clip4_2036_879)">
<path d="M154.602 18.1531C154.489 17.7276 154.266 17.3393 153.956 17.027C153.645 16.7147 153.258 16.4894 152.834 16.3736C151.27 15.9531 145.02 15.9531 145.02 15.9531C145.02 15.9531 138.77 15.9531 137.206 16.3736C136.782 16.4894 136.395 16.7147 136.084 17.027C135.774 17.3393 135.551 17.7276 135.438 18.1531C135.02 19.7236 135.02 22.9986 135.02 22.9986C135.02 22.9986 135.02 26.2736 135.438 27.844C135.551 28.2695 135.774 28.6578 136.084 28.9702C136.395 29.2825 136.782 29.5078 137.206 29.6236C138.77 30.044 145.02 30.044 145.02 30.044C145.02 30.044 151.27 30.044 152.834 29.6236C153.258 29.5078 153.645 29.2825 153.956 28.9702C154.266 28.6578 154.489 28.2695 154.602 27.844C155.02 26.2736 155.02 22.9986 155.02 22.9986C155.02 22.9986 155.02 19.7236 154.602 18.1531Z" fill="black"/>
<path d="M142.975 25.9751V20.0273L148.202 23.0012L142.975 25.9751Z" fill="#FEFEFE"/>
</g>
<path d="M264.24 19.3906C263.67 19.3906 263.22 19.8906 263.22 20.5006C263.22 21.1106 263.68 21.6106 264.24 21.6106C264.81 21.6106 265.26 21.1106 265.26 20.5006C265.27 19.8906 264.81 19.3906 264.24 19.3906ZM267.89 19.3906C267.32 19.3906 266.87 19.8906 266.87 20.5006C266.87 21.1106 267.33 21.6106 267.89 21.6106C268.46 21.6106 268.91 21.1106 268.91 20.5006C268.91 19.8906 268.46 19.3906 267.89 19.3906Z" fill="black"/>
<path d="M272.75 11H259.35C258.22 11 257.3 11.92 257.3 13.06V26.58C257.3 27.72 258.22 28.64 259.35 28.64H270.69L270.16 26.79L271.44 27.98L272.65 29.1L274.8 31V13.06C274.8 11.92 273.88 11 272.75 11ZM268.89 24.06C268.89 24.06 268.53 23.63 268.23 23.25C269.54 22.88 270.04 22.06 270.04 22.06C269.63 22.33 269.24 22.52 268.89 22.65C268.39 22.86 267.91 23 267.44 23.08C266.48 23.26 265.6 23.21 264.85 23.07C264.28 22.96 263.79 22.8 263.38 22.64C263.15 22.55 262.9 22.44 262.65 22.3C262.62 22.28 262.59 22.27 262.56 22.25C262.54 22.24 262.53 22.23 262.52 22.22C262.34 22.12 262.24 22.05 262.24 22.05C262.24 22.05 262.72 22.85 263.99 23.23C263.69 23.61 263.32 24.06 263.32 24.06C261.11 23.99 260.27 22.54 260.27 22.54C260.27 19.32 261.71 16.71 261.71 16.71C263.15 15.63 264.52 15.66 264.52 15.66L264.62 15.78C262.82 16.3 261.99 17.09 261.99 17.09C261.99 17.09 262.21 16.97 262.58 16.8C263.65 16.33 264.5 16.2 264.85 16.17C264.91 16.16 264.96 16.15 265.02 16.15C265.63 16.07 266.32 16.05 267.04 16.13C267.99 16.24 269.01 16.52 270.05 17.09C270.05 17.09 269.26 16.34 267.56 15.82L267.7 15.66C267.7 15.66 269.07 15.63 270.51 16.71C270.51 16.71 271.95 19.32 271.95 22.54C271.95 22.54 271.1 23.99 268.89 24.06V24.06Z" fill="black"/>
</g>
<defs>
<clipPath id="clip0_2036_879">
<rect width="620" height="45" fill="white"/>
</clipPath>
<clipPath id="clip1_2036_879">
<rect width="20" height="20" fill="white" transform="translate(195 12)"/>
</clipPath>
<clipPath id="clip2_2036_879">
<rect width="20" height="20" fill="white" transform="translate(12 12)"/>
</clipPath>
<clipPath id="clip3_2036_879">
<rect width="20" height="20" fill="white" transform="translate(73 12)"/>
</clipPath>
<clipPath id="clip4_2036_879">
<rect width="20" height="20" fill="white" transform="translate(135 13)"/>
</clipPath>
</defs>
</svg>
