<svg width="300" height="300" viewBox="0 0 300 300" fill="none" xmlns="http://www.w3.org/2000/svg">
<path d="M20.9 3.10625C20.9 3.60625 20.8333 4.08958 20.7 4.55625C20.5667 5.02292 20.3333 5.43958 20 5.80625C19.8667 6.00625 19.6333 6.27292 19.3 6.60625C18.9667 6.90625 18.5167 7.33959 17.95 7.90625C16.55 9.07292 15.2167 10.3063 13.95 11.6063C12.7167 12.9063 11.5167 14.2729 10.35 15.7063C9.95 16.1729 9.55 16.6563 9.15 17.1563C8.75 17.6563 8.43333 18.1729 8.2 18.7063C7.96667 19.2396 7.85 19.8063 7.85 20.4063C7.88333 21.0063 8.13333 21.6229 8.6 22.2563C9.43333 23.4229 10.3167 24.5396 11.25 25.6063C12.1833 26.6729 13.1833 27.7229 14.25 28.7563C14.8833 29.4229 15.5167 30.0729 16.15 30.7063C16.8167 31.3396 17.45 31.9729 18.05 32.6063C18.85 33.4063 19.3333 34.2563 19.5 35.1563C19.6667 36.0229 19.5833 36.7896 19.25 37.4563C18.9167 38.1229 18.3667 38.6063 17.6 38.9063C16.8667 39.2063 15.9833 39.1563 14.95 38.7563C14.4167 38.5229 13.9 38.2063 13.4 37.8063C12.9 37.4396 12.4167 37.0229 11.95 36.5563C11.4833 36.0563 11.0333 35.5563 10.6 35.0563C10.1667 34.5563 9.76667 34.0896 9.4 33.6563C3.13333 26.7563 0 22.1896 0 19.9563C0 18.2563 1.21667 15.7896 3.65 12.5563C4.58333 11.3896 5.61667 10.1729 6.75 8.90625C7.88333 7.60625 9.15 6.32292 10.55 5.05625C11.4167 4.18959 12.3 3.33958 13.2 2.50625C14.1333 1.63958 15.15 0.906252 16.25 0.306252C16.7167 0.0729176 17.2167 -0.0270831 17.75 0.00624983C18.3167 0.00624983 18.8333 0.139583 19.3 0.406251C19.7667 0.639585 20.15 0.989585 20.45 1.45625C20.75 1.92292 20.9 2.47292 20.9 3.10625Z" fill="#4857EC"/>
<path d="M40 35.9929C40 35.4929 40.0667 35.0095 40.2 34.5429C40.3333 34.0762 40.5667 33.6595 40.9 33.2929C41.0333 33.0929 41.2667 32.8262 41.6 32.4929C41.9333 32.1929 42.3833 31.7595 42.95 31.1929C44.35 30.0262 45.6833 28.7929 46.95 27.4929C48.1833 26.1929 49.3833 24.8262 50.55 23.3929C50.95 22.9262 51.35 22.4429 51.75 21.9429C52.15 21.4429 52.4667 20.9262 52.7 20.3929C52.9333 19.8595 53.05 19.2929 53.05 18.6929C53.0167 18.0929 52.7667 17.4762 52.3 16.8429C51.4667 15.6762 50.5833 14.5595 49.65 13.4929C48.7167 12.4262 47.7167 11.3762 46.65 10.3429C46.0167 9.67619 45.3833 9.02619 44.75 8.39286C44.0833 7.75952 43.45 7.12619 42.85 6.49286C42.05 5.69286 41.5667 4.84286 41.4 3.94286C41.2333 3.07619 41.3167 2.30952 41.65 1.64286C41.9833 0.976191 42.5333 0.492857 43.3 0.192857C44.0333 -0.107143 44.9167 -0.0571428 45.95 0.342857C46.4833 0.576191 47 0.892857 47.5 1.29286C48 1.65952 48.4833 2.07619 48.95 2.54286C49.4167 3.04286 49.8667 3.54286 50.3 4.04286C50.7333 4.54286 51.1333 5.00952 51.5 5.44286C57.7667 12.3429 60.9 16.9095 60.9 19.1429C60.9 20.8429 59.6833 23.3095 57.25 26.5429C56.3167 27.7095 55.2833 28.9262 54.15 30.1929C53.0167 31.4929 51.75 32.7762 50.35 34.0429C49.4833 34.9095 48.6 35.7595 47.7 36.5929C46.7667 37.4595 45.75 38.1929 44.65 38.7929C44.1833 39.0262 43.6833 39.1262 43.15 39.0929C42.5833 39.0929 42.0667 38.9595 41.6 38.6929C41.1333 38.4595 40.75 38.1095 40.45 37.6429C40.15 37.1762 40 36.6262 40 35.9929Z" fill="#4857EC"/>
<path d="M8 86C12.4183 86 16 82.4183 16 78C16 73.5817 12.4183 70 8 70C3.58172 70 0 73.5817 0 78C0 82.4183 3.58172 86 8 86Z" fill="#FF3344"/>
<path d="M32 86C36.4183 86 40 82.4183 40 78C40 73.5817 36.4183 70 32 70C27.5817 70 24 73.5817 24 78C24 82.4183 27.5817 86 32 86Z" stroke="#FF3344" stroke-width="7"/>
</svg>
