<svg width="432" height="104" viewBox="0 0 432 104" fill="none" xmlns="http://www.w3.org/2000/svg">
<rect width="432" height="104" fill="white"/>
<circle cx="47" cy="52" r="47" fill="#323232"/>
<path d="M50.8 33C53.8909 33 57.8842 33 61.0021 33C63.7635 33 66 35.2386 66 38V66C66 68.7614 63.7614 71 61 71H33C30.2386 71 28 68.7614 28 66V38C28 35.2386 30.2386 33 33 33H43.2" stroke="white" stroke-width="1.5" stroke-linecap="round"/>
<path d="M39.3999 61.5L39.3999 55.8" stroke="white" stroke-width="1.5" stroke-linecap="round" stroke-linejoin="round"/>
<path d="M47 61.5L47 42.5" stroke="white" stroke-width="1.5" stroke-linecap="round" stroke-linejoin="round"/>
<path d="M54.6001 61.5L54.6001 48.2" stroke="white" stroke-width="1.5" stroke-linecap="round" stroke-linejoin="round"/>
<circle cx="191" cy="52" r="47" fill="#323232"/>
<path d="M182.657 41.8294C182.657 46.1535 186.163 49.6589 190.487 49.6589C194.811 49.6589 198.316 46.1535 198.316 41.8294C198.316 37.5053 194.811 33.9999 190.487 33.9999" stroke="white" stroke-width="1.5" stroke-linecap="round"/>
<path d="M176.787 61.2756C176.787 59.5916 177.846 58.0893 179.432 57.5229V57.5229C186.582 54.9693 194.396 54.9693 201.546 57.5229V57.5229C203.132 58.0893 204.19 59.5916 204.19 61.2756V65.9483C204.19 67.1654 203.112 68.1003 201.908 67.9282L194.307 66.8424C191.774 66.4806 189.203 66.4806 186.67 66.8424L179.07 67.9282C177.865 68.1003 176.787 67.1654 176.787 65.9483V61.2756Z" stroke="white" stroke-width="1.5"/>
<path d="M202.234 49.8756C205.632 49.8756 208.386 47.1214 208.386 43.7239C208.386 40.3264 205.632 37.5721 202.234 37.5721" stroke="white" stroke-width="1.5" stroke-linecap="round"/>
<path d="M208.972 63.9104L209.575 63.9965C211.383 64.2548 213 62.8519 213 61.0257V59.0026C213 57.6794 212.168 56.4991 210.922 56.054C209.679 55.6101 208.411 55.2644 207.128 55.0169" stroke="white" stroke-width="1.5" stroke-linecap="round"/>
<path d="M177.766 49.8756C174.368 49.8756 171.614 47.1214 171.614 43.7239C171.614 40.3264 174.368 37.5721 177.766 37.5721" stroke="white" stroke-width="1.5" stroke-linecap="round"/>
<path d="M171.028 63.9104L170.425 63.9965C168.617 64.2548 167 62.8519 167 61.0257V59.0026C167 57.6794 167.832 56.4991 169.078 56.054C170.321 55.6101 171.589 55.2644 172.872 55.0169" stroke="white" stroke-width="1.5" stroke-linecap="round"/>
<circle cx="335" cy="52" r="47" fill="#323232"/>
<path d="M347.618 54.9687C348.808 51.4284 348.664 47.5754 347.215 44.1331C345.766 40.6908 343.11 37.8959 339.746 36.273C336.382 34.6501 332.541 34.3109 328.945 35.319C325.348 36.3271 322.244 38.6132 320.213 41.7481C318.183 44.8831 317.367 48.6513 317.918 52.3454C318.469 56.0396 320.349 59.4055 323.206 61.8115C326.063 64.2174 329.7 65.4979 333.434 65.4126C337.168 65.3272 340.742 63.8819 343.486 61.3479" stroke="white" stroke-width="1.5" stroke-linecap="round" stroke-linejoin="round"/>
<path d="M327.333 50.0832H338.833" stroke="white" stroke-width="1.5" stroke-linecap="round" stroke-linejoin="round"/>
<path d="M333.083 44.3332L333.083 55.8332" stroke="white" stroke-width="1.5" stroke-linecap="round" stroke-linejoin="round"/>
<path d="M343.625 61.5027L353.208 71.0861" stroke="white" stroke-width="1.5" stroke-linecap="round" stroke-linejoin="round"/>
</svg>
