<svg width="19" height="19" viewBox="0 0 19 19" fill="none" xmlns="http://www.w3.org/2000/svg">
<path d="M1 9.5C1 14.1944 4.80558 18 9.5 18C14.1944 18 18 14.1944 18 9.5C18 4.80558 14.1944 1 9.5 1C4.80558 1 1 4.80558 1 9.5Z" fill="black"/>
<path d="M10.605 6.78L8.30078 8.91963C7.93862 9.25591 7.93862 9.82909 8.30078 10.1654L10.605 12.305M9.5 1C4.80558 1 1 4.80558 1 9.5C1 14.1944 4.80558 18 9.5 18C14.1944 18 18 14.1944 18 9.5C18 4.80558 14.1944 1 9.5 1Z" stroke="white" stroke-width="1.5" stroke-linecap="round"/>
</svg>
