<svg width="19" height="19" viewBox="0 0 19 19" fill="none" xmlns="http://www.w3.org/2000/svg">
<path d="M18 9.5C18 4.80558 14.1944 1 9.5 1C4.80558 1 1 4.80558 1 9.5C1 14.1944 4.80558 18 9.5 18C14.1944 18 18 14.1944 18 9.5Z" fill="black"/>
<path d="M8.39501 12.22L10.6992 10.0804C11.0614 9.74409 11.0614 9.17091 10.6992 8.83463L8.39501 6.695M9.5 18C14.1944 18 18 14.1944 18 9.5C18 4.80558 14.1944 1 9.5 1C4.80558 1 1 4.80558 1 9.5C1 14.1944 4.80558 18 9.5 18Z" stroke="white" stroke-width="1.5" stroke-linecap="round"/>
</svg>
