<svg width="89" height="225" viewBox="0 0 89 225" fill="none" xmlns="http://www.w3.org/2000/svg">
<path d="M1 9.5C1 14.1944 4.80558 18 9.5 18C14.1944 18 18 14.1944 18 9.5C18 4.80558 14.1944 1 9.5 1C4.80558 1 1 4.80558 1 9.5Z" fill="black"/>
<path d="M10.605 6.78L8.30078 8.91963C7.93862 9.25591 7.93862 9.82909 8.30078 10.1654L10.605 12.305M9.5 1C4.80558 1 1 4.80558 1 9.5C1 14.1944 4.80558 18 9.5 18C14.1944 18 18 14.1944 18 9.5C18 4.80558 14.1944 1 9.5 1Z" stroke="white" stroke-width="1.5" stroke-linecap="round"/>
<circle cx="34" cy="10" r="6" fill="black"/>
<circle cx="56" cy="10" r="4" stroke="black" stroke-width="4"/>
<path d="M88 9.50001C88 4.80559 84.1944 1.00001 79.5 1.00002C74.8056 1.00002 71 4.8056 71 9.50002C71 14.1944 74.8056 18 79.5 18C84.1944 18 88 14.1944 88 9.50001Z" fill="black"/>
<path d="M78.395 12.22L80.6992 10.0804C81.0614 9.7441 81.0614 9.17093 80.6992 8.83464L78.395 6.69502M79.5 18C84.1944 18 88 14.1944 88 9.50001C88 4.80559 84.1944 1.00001 79.5 1.00002C74.8056 1.00002 71 4.8056 71 9.50002C71 14.1944 74.8056 18 79.5 18Z" stroke="white" stroke-width="1.5" stroke-linecap="round"/>
<path d="M18.3421 32L19 33.4259L2.3545 67.5L19 101.574L18.3421 103L1 67.5L18.3421 32Z" fill="#323232"/>
<path d="M18.3421 32L19 33.4259L2.3545 67.5L19 101.574L18.3421 103L1 67.5L18.3421 32Z" stroke="black"/>
<path d="M32.6579 103L32 101.574L48.6455 67.5L32 33.4259L32.6579 32L50 67.5L32.6579 103Z" fill="#323232"/>
<path d="M32.6579 103L32 101.574L48.6455 67.5L32 33.4259L32.6579 32L50 67.5L32.6579 103Z" stroke="black"/>
<g opacity="0.3">
<path d="M2.0965 224.344L0.999996 221.907L28.7425 163.672L1 105.437L2.0965 103L31 163.672L2.0965 224.344Z" fill="black"/>
<path d="M2.0965 224.344L0.999996 221.907L28.7425 163.672L1 105.437L2.0965 103L31 163.672L2.0965 224.344Z" stroke="black"/>
</g>
</svg>
