<svg width="432" height="48" viewBox="0 0 432 48" fill="none" xmlns="http://www.w3.org/2000/svg">
<path fill-rule="evenodd" clip-rule="evenodd" d="M394 10H398V14H394V10ZM402 18H398V14H402V18ZM406 22H402V18H406V22ZM410 22H406V26H402V30H398V34H394V38H398V34H402V30H406V26H410V30H414V34H418V38H422V34H418V30H414V26H410V22ZM414 18V22H410V18H414ZM418 14V18H414V14H418ZM418 14V10H422V14H418Z" fill="black"/>
<path d="M36 22V20H34V18H30V14H26V10H22V6H10V42H22V40V38H26V34H30V30H34V28H36V26H38V22H36ZM26 26V30H22V34H18V38H14V10H18V14H22V18H26V22H30V26H26Z" fill="black"/>
<path fill-rule="evenodd" clip-rule="evenodd" d="M62 40V8H68V40H62ZM76 40V8H82V40H76Z" fill="black"/>
<path fill-rule="evenodd" clip-rule="evenodd" d="M104 6H108V42H104V6ZM120 10H124V6H136V42H124V38H120V34H116V30H112V28H110V20H112V18H116V14H120V10ZM116 22V26H120V30H124V34H128V38H132V10H128V14H124V18H120V22H116Z" fill="black"/>
<path fill-rule="evenodd" clip-rule="evenodd" d="M152 6H164V10H168V14H172V18H176V20H178V28H176V30H172V34H168V38H164V42H152V6ZM168 30V26H172V22H168V18H164V14H160V10H156V38H160V34H164V30H168ZM180 6H184V42H180V6Z" fill="black"/>
<path fill-rule="evenodd" clip-rule="evenodd" d="M200 12H232V16H200V12ZM200 22.0001H232V26.0001H200V22.0001ZM232 32.0001H200V36.0001H232V32.0001Z" fill="black"/>
<line x1="250" y1="8" x2="278" y2="8" stroke="black" stroke-width="4"/>
<line x1="250" y1="36" x2="278" y2="36" stroke="black" stroke-width="4"/>
<rect x="250" y="10" width="4" height="4" fill="black"/>
<rect x="250" y="14" width="4" height="4" fill="black"/>
<rect x="250" y="18" width="4" height="4" fill="black"/>
<rect x="274" y="30" width="4" height="4" fill="black"/>
<rect x="274" y="26" width="4" height="4" fill="black"/>
<rect x="274" y="22" width="4" height="4" fill="black"/>
<rect x="246" y="16" width="4" height="4" fill="black"/>
<rect x="254" y="16" width="4" height="4" fill="black"/>
<rect x="270" y="23" width="4" height="4" fill="black"/>
<rect x="278" y="23" width="4" height="4" fill="black"/>
<rect x="281" y="25" width="4" height="4" fill="black"/>
<rect x="267" y="25" width="4" height="4" fill="black"/>
<rect x="257" y="14" width="4" height="4" fill="black"/>
<rect x="243" y="14" width="4" height="4" fill="black"/>
<line x1="299" y1="8" x2="327" y2="8" stroke="black" stroke-width="4"/>
<line x1="299" y1="36" x2="327" y2="36" stroke="black" stroke-width="4"/>
<rect x="299" y="10" width="4" height="4" fill="black"/>
<rect x="299" y="14" width="4" height="4" fill="black"/>
<rect x="299" y="18" width="4" height="4" fill="black"/>
<rect x="323" y="30" width="4" height="4" fill="black"/>
<rect x="323" y="26" width="4" height="4" fill="black"/>
<rect x="323" y="22" width="4" height="4" fill="black"/>
<rect x="295" y="16" width="4" height="4" fill="black"/>
<rect x="303" y="16" width="4" height="4" fill="black"/>
<rect x="319" y="23" width="4" height="4" fill="black"/>
<rect x="327" y="23" width="4" height="4" fill="black"/>
<rect x="330" y="25" width="4" height="4" fill="black"/>
<rect x="316" y="25" width="4" height="4" fill="black"/>
<rect x="309" y="19" width="4" height="4" fill="black"/>
<rect x="307" y="20" width="4" height="4" fill="black"/>
<rect x="311" y="18" width="4" height="4" fill="black"/>
<rect x="311" y="22" width="4" height="4" fill="black"/>
<rect x="311" y="26" width="4" height="4" fill="black"/>
<rect x="312" y="28" width="4" height="4" fill="black"/>
<rect x="311" y="15" width="4" height="4" fill="black"/>
<rect x="306" y="14" width="4" height="4" fill="black"/>
<rect x="292" y="14" width="4" height="4" fill="black"/>
<rect x="345" y="34" width="4" height="5" fill="black"/>
<rect x="349" y="34" width="5" height="5" fill="black"/>
<rect x="354" y="34" width="3" height="5" fill="black"/>
<rect x="357" y="30" width="5" height="4" fill="black"/>
<rect x="357" y="25" width="5" height="5" fill="black"/>
<rect x="357" y="22" width="5" height="3" fill="black"/>
<rect x="362" y="17" width="4" height="5" fill="black"/>
<rect x="366" y="17" width="5" height="5" fill="black"/>
<rect x="371" y="17" width="5" height="5" fill="black"/>
<rect x="376" y="17" width="4" height="5" fill="black"/>
<rect x="371" y="13" width="5" height="4" fill="black"/>
<rect x="366" y="8" width="5" height="5" fill="black"/>
<rect x="371" y="22" width="5" height="3" fill="black"/>
<rect x="366" y="25" width="5" height="5" fill="black"/>
<rect x="340" y="34" width="5" height="5" fill="black"/>
<rect x="340" y="16" width="5" height="4" fill="black"/>
<rect x="345" y="16" width="4" height="4" fill="black"/>
<rect x="349" y="16" width="5" height="4" fill="black"/>
<rect x="366" y="34" width="5" height="5" fill="black"/>
<rect x="371" y="34" width="5" height="5" fill="black"/>
<rect x="376" y="34" width="4" height="5" fill="black"/>
</svg>
