<svg width="620" height="60" viewBox="0 0 620 60" fill="none" xmlns="http://www.w3.org/2000/svg">
<rect width="620" height="60" fill="#F2F2F2"/>
<circle cx="30" cy="30" r="30" fill="#D5BFF0"/>
<circle cx="210" cy="30" r="30" fill="#F8CCF9"/>
<circle cx="298" cy="30" r="30" fill="#F0BFBF"/>
<circle cx="117" cy="30" r="30" fill="#BFF0C1"/>
<path d="M34.432 34.5236C34.8012 36.7387 33.75 40.5 30 40.5C26.25 40.5 25.2002 36.7387 25.5694 34.5236M30 19.5C27.75 19.5 25.9024 20.1952 24.75 22.5C23.25 25.5 25.5 30 21 34.5H39C34.5 30 36.75 25.5 35.25 22.5C34.0976 20.1952 32.25 19.5 30 19.5Z" stroke="#F2F2F2" stroke-width="2" stroke-linecap="round" stroke-linejoin="round"/>
<g clip-path="url(#clip0_1399_138)">
<path d="M205.5 31.5C206.25 33.75 208.5 34.5 210 34.5C211.5 34.5 213.75 33.75 214.5 31.5M207 27.0292V27M213 27.0292V27M220.5 30C220.5 35.799 215.799 40.5 210 40.5C204.201 40.5 199.5 35.799 199.5 30C199.5 24.201 204.201 19.5 210 19.5C215.799 19.5 220.5 24.201 220.5 30Z" stroke="#F2F2F2" stroke-width="2" stroke-linecap="round" stroke-linejoin="round"/>
</g>
<path d="M298 21L301.245 27.419L308.5 28.4483L303.25 33.4448L304.489 40.5L298 37.169L291.511 40.5L292.75 33.4448L287.5 28.4483L294.755 27.419L298 21Z" stroke="#F2F2F2" stroke-width="2" stroke-linejoin="round"/>
<path d="M117 22.5822V39M117 22.5822C115.637 21.6022 113.788 21 111.75 21C109.712 21 107.863 21.6022 106.5 22.5822V39C107.863 38.0201 109.712 37.4178 111.75 37.4178C113.788 37.4178 115.637 38.0201 117 39M117 22.5822C118.363 21.6022 120.212 21 122.25 21C124.288 21 126.137 21.6022 127.5 22.5822V39C126.137 38.0201 124.288 37.4178 122.25 37.4178C120.212 37.4178 118.363 38.0201 117 39" stroke="white" stroke-width="2" stroke-linecap="round" stroke-linejoin="round"/>
<circle cx="386" cy="30" r="30" fill="#E9F0BF"/>
<path d="M394.917 25.5705C392.806 23.4765 389.384 23.4765 387.274 25.5705L386 27L384.726 25.5705C382.616 23.4765 379.194 23.4765 377.083 25.5705C374.972 27.6644 374.972 31.0594 377.083 33.1533L386 42L394.917 33.1533C397.028 31.0594 397.028 27.6644 394.917 25.5705Z" stroke="white" stroke-width="2" stroke-linejoin="round"/>
<circle cx="474" cy="30" r="30" fill="#BFE1F0"/>
<g clip-path="url(#clip1_1399_138)">
<path d="M474 40.5H478.2C479.88 40.5 480.72 40.5 481.362 40.173C481.926 39.8854 482.385 39.4264 482.673 38.862C483 38.2203 483 37.3802 483 35.7V28.5H465V35.7C465 37.3802 465 38.2203 465.327 38.862C465.615 39.4264 466.074 39.8854 466.638 40.173C467.28 40.5 468.12 40.5 469.8 40.5H474ZM474 40.5V24M474 24H482.25C482.949 24 483.298 24 483.574 24.1142C483.942 24.2664 484.234 24.5584 484.386 24.926C484.5 25.2016 484.5 25.5511 484.5 26.25C484.5 26.9489 484.5 27.2984 484.386 27.574C484.234 27.9416 483.942 28.2336 483.574 28.3858C483.298 28.5 482.949 28.5 482.25 28.5H465.75C465.051 28.5 464.702 28.5 464.426 28.3858C464.058 28.2336 463.766 27.9416 463.614 27.574C463.5 27.2984 463.5 26.9489 463.5 26.25C463.5 25.5511 463.5 25.2016 463.614 24.926C463.766 24.5584 464.058 24.2664 464.426 24.1142C464.702 24 465.051 24 465.75 24H468M474 24C474 20.2556 471.145 19.255 469.512 19.6704C467.262 20.2426 467.441 23.0294 468 24M474 24H468M474 24C474 20.2556 476.855 19.255 478.488 19.6704C480.738 20.2426 480.559 23.0294 480 24H474Z" stroke="white" stroke-width="2" stroke-linecap="round" stroke-linejoin="round"/>
</g>
<defs>
<clipPath id="clip0_1399_138">
<rect width="24" height="24" fill="white" transform="translate(198 18)"/>
</clipPath>
<clipPath id="clip1_1399_138">
<rect width="24" height="24" fill="white" transform="translate(462 18)"/>
</clipPath>
</defs>
</svg>
