<svg width="620" height="60" viewBox="0 0 620 60" fill="none" xmlns="http://www.w3.org/2000/svg">
<g clip-path="url(#clip0_1508_95)">
<rect width="620" height="60" fill="#F2F2F2"/>
<circle cx="30" cy="30" r="30" fill="#D5BFF0"/>
<circle cx="298" cy="30" r="30" fill="#F0BFBF"/>
<circle cx="117" cy="30" r="30" fill="#BFF0C1"/>
<path d="M34.432 34.5236C34.8012 36.7387 33.75 40.5 30 40.5C26.25 40.5 25.2002 36.7387 25.5694 34.5236M30 19.5C27.75 19.5 25.9024 20.1952 24.75 22.5C23.25 25.5 25.5 30 21 34.5H39C34.5 30 36.75 25.5 35.25 22.5C34.0976 20.1952 32.25 19.5 30 19.5Z" stroke="#F2F2F2" stroke-width="2" stroke-linecap="round" stroke-linejoin="round"/>
<circle cx="386" cy="30" r="30" fill="#E9F0BF"/>
<circle cx="205" cy="33" r="30" fill="#E9F0BF"/>
<path d="M394.917 25.5705C392.806 23.4765 389.384 23.4765 387.274 25.5705L386 27L384.726 25.5705C382.616 23.4765 379.194 23.4765 377.083 25.5705C374.972 27.6644 374.972 31.0594 377.083 33.1533L386 42L394.917 33.1533C397.028 31.0594 397.028 27.6644 394.917 25.5705Z" stroke="white" stroke-width="2" stroke-linejoin="round"/>
<circle cx="474" cy="30" r="30" fill="#BFE1F0"/>
<g clip-path="url(#clip1_1508_95)">
<path d="M474 40.5H478.2C479.88 40.5 480.72 40.5 481.362 40.173C481.926 39.8855 482.385 39.4265 482.673 38.862C483 38.2203 483 37.3802 483 35.7V28.5H465V35.7C465 37.3802 465 38.2203 465.327 38.862C465.615 39.4265 466.074 39.8855 466.638 40.173C467.28 40.5 468.12 40.5 469.8 40.5H474ZM474 40.5V24M474 24H482.25C482.949 24 483.298 24 483.574 24.1142C483.942 24.2664 484.234 24.5585 484.386 24.926C484.5 25.2017 484.5 25.5511 484.5 26.25C484.5 26.9489 484.5 27.2984 484.386 27.574C484.234 27.9416 483.942 28.2336 483.574 28.3858C483.298 28.5 482.949 28.5 482.25 28.5H465.75C465.051 28.5 464.702 28.5 464.426 28.3858C464.058 28.2336 463.766 27.9416 463.614 27.574C463.5 27.2984 463.5 26.9489 463.5 26.25C463.5 25.5511 463.5 25.2017 463.614 24.926C463.766 24.5585 464.058 24.2664 464.426 24.1142C464.702 24 465.051 24 465.75 24H468M474 24C474 20.2556 471.145 19.2551 469.512 19.6704C467.262 20.2426 467.441 23.0294 468 24M474 24H468M474 24C474 20.2556 476.855 19.2551 478.488 19.6704C480.738 20.2426 480.559 23.0294 480 24H474Z" stroke="white" stroke-width="2" stroke-linecap="round" stroke-linejoin="round"/>
</g>
<path d="M125.917 22.5705C123.806 20.4765 120.384 20.4765 118.274 22.5705L117 24L115.726 22.5705C113.616 20.4765 110.194 20.4765 108.083 22.5705C105.972 24.6644 105.972 28.0594 108.083 30.1533L117 39L125.917 30.1533C128.028 28.0594 128.028 24.6644 125.917 22.5705Z" stroke="white" stroke-width="2" stroke-linejoin="round"/>
<g clip-path="url(#clip2_1508_95)">
<path d="M298 40.5H302.2C303.88 40.5 304.72 40.5 305.362 40.173C305.926 39.8855 306.385 39.4265 306.673 38.862C307 38.2203 307 37.3802 307 35.7V28.5H289V35.7C289 37.3802 289 38.2203 289.327 38.862C289.615 39.4265 290.074 39.8855 290.638 40.173C291.28 40.5 292.12 40.5 293.8 40.5H298ZM298 40.5V24M298 24H306.25C306.949 24 307.298 24 307.574 24.1142C307.942 24.2664 308.234 24.5585 308.386 24.926C308.5 25.2017 308.5 25.5511 308.5 26.25C308.5 26.9489 308.5 27.2984 308.386 27.574C308.234 27.9416 307.942 28.2336 307.574 28.3858C307.298 28.5 306.949 28.5 306.25 28.5H289.75C289.051 28.5 288.702 28.5 288.426 28.3858C288.058 28.2336 287.766 27.9416 287.614 27.574C287.5 27.2984 287.5 26.9489 287.5 26.25C287.5 25.5511 287.5 25.2017 287.614 24.926C287.766 24.5585 288.058 24.2664 288.426 24.1142C288.702 24 289.051 24 289.75 24H292M298 24C298 20.2556 295.145 19.2551 293.512 19.6704C291.262 20.2426 291.441 23.0294 292 24M298 24H292M298 24C298 20.2556 300.855 19.2551 302.488 19.6704C304.738 20.2426 304.559 23.0294 304 24H298Z" stroke="white" stroke-width="2" stroke-linecap="round" stroke-linejoin="round"/>
</g>
<path d="M205 25.5822V42M205 25.5822C203.637 24.6022 201.788 24 199.75 24C197.712 24 195.863 24.6022 194.5 25.5822V42C195.863 41.0201 197.712 40.4178 199.75 40.4178C201.788 40.4178 203.637 41.0201 205 42M205 25.5822C206.363 24.6022 208.212 24 210.25 24C212.288 24 214.137 24.6022 215.5 25.5822V42C214.137 41.0201 212.288 40.4178 210.25 40.4178C208.212 40.4178 206.363 41.0201 205 42" stroke="white" stroke-width="2" stroke-linecap="round" stroke-linejoin="round"/>
</g>
<defs>
<clipPath id="clip0_1508_95">
<rect width="620" height="60" fill="white"/>
</clipPath>
<clipPath id="clip1_1508_95">
<rect width="24" height="24" fill="white" transform="translate(462 18)"/>
</clipPath>
<clipPath id="clip2_1508_95">
<rect width="24" height="24" fill="white" transform="translate(286 18)"/>
</clipPath>
</defs>
</svg>
