<svg width="229" height="22" viewBox="0 0 229 22" fill="none" xmlns="http://www.w3.org/2000/svg">
<g clip-path="url(#clip0_1516_237)">
<rect width="229" height="22" fill="#F2F2F2"/>
<path d="M11 0L13.4697 7.60081H21.4616L14.996 12.2984L17.4656 19.8992L11 15.2016L4.53436 19.8992L7.00402 12.2984L0.538379 7.60081H8.53035L11 0Z" fill="#F7F04A"/>
<path d="M56.4616 0L58.9313 7.60081H66.9232L60.4576 12.2984L62.9273 19.8992L56.4616 15.2016L49.996 19.8992L52.4656 12.2984L46 7.60081H53.992L56.4616 0Z" fill="#F7F04A"/>
<path d="M102 1L104.47 8.60081H112.462L105.996 13.2984L108.466 20.8992L102 16.2016L95.5344 20.8992L98.004 13.2984L91.5384 8.60081H99.5303L102 1Z" fill="#F7F04A"/>
<path d="M148 1L150.47 8.60081H158.462L151.996 13.2984L154.466 20.8992L148 16.2016L141.534 20.8992L144.004 13.2984L137.538 8.60081H145.53L148 1Z" fill="#F7F04A"/>
<path d="M194 2.61804L195.994 8.75532L196.106 9.10081H196.47H202.923L197.702 12.8939L197.408 13.1074L197.52 13.4529L199.515 19.5902L194.294 15.7971L194 15.5836L193.706 15.7971L188.485 19.5902L190.48 13.4529L190.592 13.1074L190.298 12.8939L185.077 9.10081H191.53H191.894L192.006 8.75532L194 2.61804Z" fill="white" stroke="#F6F04A"/>
</g>
<defs>
<clipPath id="clip0_1516_237">
<rect width="229" height="22" fill="white"/>
</clipPath>
</defs>
</svg>
